<svg xmlns="http://www.w3.org/2000/svg" width="495.28" height="501.5" viewBox="0 0 495.28 501.5">
    <title>download</title>
    <g id="eb07002c-c711-4303-9ba6-190d9a4f3716" data-name="Layer 2">
        <g id="42243a20-5d2a-429f-9c8d-f959ec69f595" data-name="Capa 1" fill="grey">
            <path d="M426.52,315.8v117H68.76v-117H0V467.14A34.37,34.37,0,0,0,34.43,501.5H460.85a34.37,34.37,0,0,0,34.43-34.36V315.8Z"/>
            <path d="M241.35,314.7l-98.44-119s-15-14.14,1.26-14.14h55.47V8.44S197.44,0,210.14,0h78.09c9.15,0,8.95,7.1,8.95,7.1V178h51.2c19.71,0,4.87,14.81,4.87,14.81S269.49,304,257.81,315.69C249.41,324.15,241.35,314.7,241.35,314.7Z"/>
        </g>
    </g>
</svg>