<?xml version="1.0" encoding="UTF-8" standalone="no"?>
<!DOCTYPE svg PUBLIC "-//W3C//DTD SVG 1.1//EN" "http://www.w3.org/Graphics/SVG/1.1/DTD/svg11.dtd">
<svg version="1.1" xmlns="http://www.w3.org/2000/svg" xmlns:xlink="http://www.w3.org/1999/xlink" preserveAspectRatio="xMidYMid meet"
     viewBox="234.89856878167504 231.96345417300546 93.27255905280632 83.41970724987107" width="89.27" height="79.42">
    <defs>
        <path d="M280.53 255.29C286.68 255.29 291.69 250.28 291.69 244.13C291.69 237.97 286.68 232.96 280.53 232.96C274.37 232.96 269.37 237.97 269.37 244.13C269.37 250.28 274.37 255.29 280.53 255.29Z"
              id="a15ZUr1hHh"></path>
        <path d="M263.24 284.27C257.08 284.27 252.08 279.27 252.08 273.11C252.08 266.95 257.08 261.96 263.24 261.96C269.4 261.96 274.4 266.95 274.4 273.11C274.4 279.27 269.4 284.27 263.24 284.27Z"
              id="b9rJH70AFn"></path>
        <path d="M297.49 284.25C291.34 284.62 286.04 279.93 285.67 273.78C285.3 267.64 290 262.35 296.15 261.98C302.29 261.61 307.59 266.3 307.96 272.44C308.33 278.59 303.63 283.88 297.49 284.25Z"
              id="d3PmhuHblO"></path>
        <path d="M247.06 290.07C240.9 290.07 235.9 295.07 235.9 301.22C235.9 307.38 240.9 312.38 247.06 312.38C253.22 312.38 258.22 307.38 258.22 301.22C258.22 295.07 253.22 290.07 247.06 290.07Z"
              id="a3ael7E5LH"></path>
        <path d="M280.53 290.07C286.68 290.07 291.69 295.07 291.69 301.22C291.69 307.38 286.68 312.38 280.53 312.38C274.37 312.38 269.37 307.38 269.37 301.22C269.37 295.07 274.37 290.07 280.53 290.07Z"
              id="a3nYfeiBij"></path>
        <path d="M314.01 290.07C307.85 290.07 302.85 295.07 302.85 301.22C302.85 307.38 307.85 312.38 314.01 312.38C320.17 312.38 325.17 307.38 325.17 301.22C325.17 295.07 320.17 290.07 314.01 290.07Z"
              id="a5bws8ztd"></path>
    </defs>
    <g>
        <g>
            <use xlink:href="#a15ZUr1hHh" opacity="1" fill="#808080" fill-opacity="1"></use>
            <g>
                <use xlink:href="#a15ZUr1hHh" opacity="1" fill-opacity="0" stroke="#000000" stroke-width="1" stroke-opacity="0"></use>
            </g>
        </g>
        <g>
            <use xlink:href="#b9rJH70AFn" opacity="1" fill="#808080" fill-opacity="1"></use>
            <g>
                <use xlink:href="#b9rJH70AFn" opacity="1" fill-opacity="0" stroke="#000000" stroke-width="1" stroke-opacity="0"></use>
            </g>
        </g>
        <g>
            <use xlink:href="#d3PmhuHblO" opacity="1" fill="#808080" fill-opacity="1"></use>
            <g>
                <use xlink:href="#d3PmhuHblO" opacity="1" fill-opacity="0" stroke="#000000" stroke-width="1" stroke-opacity="0"></use>
            </g>
        </g>
        <g>
            <use xlink:href="#a3ael7E5LH" opacity="1" fill="#808080" fill-opacity="1"></use>
            <g>
                <use xlink:href="#a3ael7E5LH" opacity="1" fill-opacity="0" stroke="#000000" stroke-width="1" stroke-opacity="0"></use>
            </g>
        </g>
        <g>
            <use xlink:href="#a3nYfeiBij" opacity="1" fill="#808080" fill-opacity="1"></use>
            <g>
                <use xlink:href="#a3nYfeiBij" opacity="1" fill-opacity="0" stroke="#000000" stroke-width="1" stroke-opacity="0"></use>
            </g>
        </g>
        <g>
            <use xlink:href="#a5bws8ztd" opacity="1" fill="#808080" fill-opacity="1"></use>
            <g>
                <use xlink:href="#a5bws8ztd" opacity="1" fill-opacity="0" stroke="#000000" stroke-width="1" stroke-opacity="0"></use>
            </g>
        </g>
    </g>
</svg>